<svg width="228" height="112" viewBox="0 0 228 112" fill="none" xmlns="http://www.w3.org/2000/svg">
<path d="M40.1921 111.744H1.2801V107.776L13.3121 98.3041V20.7361L9.77516e-05 16.2561L2.5601 11.1361H41.4721V15.1041L29.3121 24.5761V102.016L42.7521 106.624L40.1921 111.744ZM135.372 111.872H111.052V68.7361C111.052 64.0428 110.327 60.7575 108.876 58.8801C107.425 57.0028 104.823 56.0641 101.068 56.0641C98.2521 56.0641 95.4361 56.5761 92.6201 57.6001C89.8894 58.6241 86.6468 60.5868 82.8921 63.4881V102.272L94.4121 106.752L91.8521 111.872H56.1401V107.904L67.5321 98.9441V62.7201L56.1401 56.0641V52.0961L78.0281 41.3441L82.2521 57.9841L100.428 43.5201C102.22 42.8375 104.567 42.4961 107.468 42.4961C113.271 42.4961 117.879 44.2881 121.292 47.8721C124.705 51.3708 126.412 56.1495 126.412 62.2081V102.144L137.932 106.752L135.372 111.872ZM183.852 106.624L181.292 111.744H145.58V107.776L156.972 98.8161V20.0961L145.58 12.1601V8.19214L167.468 0.000137329H172.332V102.144L183.852 106.624ZM224.812 111.744H203.18L179.116 77.9521L203.052 57.8561L190.764 48.8961L193.324 43.7761H223.916V47.7441L194.22 72.7041L215.852 102.144L227.372 106.624L224.812 111.744Z" fill="black"/>
</svg>
